<svg width="94" height="144" viewBox="0 0 94 144" fill="none" xmlns="http://www.w3.org/2000/svg">
<g filter="url(#filter0_dd_1_3026)">
<rect x="64" y="50" width="44" height="44" rx="10" transform="rotate(90 64 50)" fill="url(#paint0_linear_1_3026)" shape-rendering="crispEdges"/>
<path d="M37.5117 72C37.5205 72.3076 37.6348 72.5889 37.8809 72.8174L44.7188 79.4971C44.9121 79.6904 45.1582 79.7959 45.4482 79.7959C46.0283 79.7959 46.4941 79.3389 46.4941 78.7588C46.4941 78.4775 46.3799 78.2051 46.1777 78.0029L40.0166 72.0088L46.1777 65.9971C46.3711 65.7949 46.4941 65.5312 46.4941 65.2412C46.4941 64.6611 46.0283 64.2041 45.4482 64.2041C45.1582 64.2041 44.9121 64.3096 44.7188 64.5029L37.8809 71.1914C37.6348 71.4287 37.5117 71.6924 37.5117 72Z" fill="white"/>
<rect x="63.5" y="50.5" width="43" height="43" rx="9.5" transform="rotate(90 63.5 50.5)" stroke="url(#paint1_linear_1_3026)" stroke-opacity="0.6" style="mix-blend-mode:overlay" shape-rendering="crispEdges"/>
</g>
<defs>
<filter id="filter0_dd_1_3026" x="-10" y="0" width="104" height="144" filterUnits="userSpaceOnUse" color-interpolation-filters="sRGB">
<feFlood flood-opacity="0" result="BackgroundImageFix"/>
<feColorMatrix in="SourceAlpha" type="matrix" values="0 0 0 0 0 0 0 0 0 0 0 0 0 0 0 0 0 0 127 0" result="hardAlpha"/>
<feOffset dy="20"/>
<feGaussianBlur stdDeviation="15"/>
<feComposite in2="hardAlpha" operator="out"/>
<feColorMatrix type="matrix" values="0 0 0 0 0.0640972 0 0 0 0 0.0794837 0 0 0 0 0.108333 0 0 0 1 0"/>
<feBlend mode="normal" in2="BackgroundImageFix" result="effect1_dropShadow_1_3026"/>
<feColorMatrix in="SourceAlpha" type="matrix" values="0 0 0 0 0 0 0 0 0 0 0 0 0 0 0 0 0 0 127 0" result="hardAlpha"/>
<feOffset dy="-20"/>
<feGaussianBlur stdDeviation="15"/>
<feComposite in2="hardAlpha" operator="out"/>
<feColorMatrix type="matrix" values="0 0 0 0 0.167014 0 0 0 0 0.203125 0 0 0 0 0.270833 0 0 0 0.5 0"/>
<feBlend mode="normal" in2="effect1_dropShadow_1_3026" result="effect2_dropShadow_1_3026"/>
<feBlend mode="normal" in="SourceGraphic" in2="effect2_dropShadow_1_3026" result="shape"/>
</filter>
<linearGradient id="paint0_linear_1_3026" x1="66.2" y1="50" x2="96.8464" y2="109.431" gradientUnits="userSpaceOnUse">
<stop stop-color="#34C8E8"/>
<stop offset="1" stop-color="#4E4AF2"/>
</linearGradient>
<linearGradient id="paint1_linear_1_3026" x1="64" y1="50" x2="88.9884" y2="102.969" gradientUnits="userSpaceOnUse">
<stop stop-color="white"/>
<stop offset="1"/>
</linearGradient>
</defs>
</svg>
