<?xml version="1.0" standalone="no"?>
<!DOCTYPE svg PUBLIC "-//W3C//DTD SVG 20010904//EN"
 "http://www.w3.org/TR/2001/REC-SVG-20010904/DTD/svg10.dtd">
<svg version="1.0" xmlns="http://www.w3.org/2000/svg"
 width="334.000000pt" height="342.000000pt" viewBox="0 0 334.000000 342.000000"
 preserveAspectRatio="xMidYMid meet">

<g transform="translate(0.000000,342.000000) scale(0.100000,-0.100000)"
fill="#EDEADE" stroke="none">
<path d="M1636 2928 c-12 -16 -16 -47 -16 -115 0 -80 3 -96 20 -113 24 -24 38
-25 68 -4 20 14 22 23 22 118 0 87 -3 105 -18 119 -26 23 -58 21 -76 -5z"/>
<path d="M842 2724 c-12 -8 -22 -25 -22 -37 0 -22 67 -146 97 -179 32 -36 86
-14 85 35 0 43 -102 197 -131 197 -4 0 -17 -7 -29 -16z"/>
<path d="M2458 2730 c-24 -14 -108 -165 -108 -193 0 -32 22 -49 56 -45 23 2
36 17 76 86 53 93 59 123 26 146 -26 18 -27 19 -50 6z"/>
<path d="M247 2132 c-22 -24 -22 -55 1 -74 33 -29 161 -98 181 -98 26 0 55 43
46 69 -6 21 -170 121 -197 121 -8 0 -22 -8 -31 -18z"/>
<path d="M2983 2106 c-99 -59 -105 -64 -101 -100 2 -23 10 -33 29 -40 22 -8
40 -1 118 43 87 50 91 54 91 86 0 24 -6 38 -19 45 -30 15 -40 12 -118 -34z"/>
<path d="M816 2094 c-19 -19 -20 -45 -3 -66 6 -9 67 -37 134 -63 108 -41 122
-50 127 -73 6 -30 117 -633 143 -777 12 -70 21 -95 40 -112 13 -13 31 -23 39
-23 19 0 18 -3 -16 -95 -16 -44 -30 -85 -30 -92 0 -21 31 -43 60 -43 l28 0
-20 -37 c-26 -50 -21 -127 12 -173 27 -38 90 -70 140 -70 42 0 105 35 133 72
31 41 35 128 9 173 l-21 35 184 0 185 0 -20 -32 c-28 -47 -27 -125 3 -169 26
-39 97 -79 142 -79 45 1 109 34 135 70 33 46 38 123 12 173 l-20 37 33 0 c55
0 82 41 49 74 -14 14 -70 16 -474 16 l-459 0 19 53 c10 28 21 60 25 69 6 16
42 18 447 20 427 3 440 4 451 23 14 24 32 78 132 390 42 132 85 265 96 296 23
66 24 102 5 119 -15 12 -136 20 -616 40 -140 5 -316 13 -391 16 -130 6 -138 5
-158 -15 -44 -44 -10 -91 67 -91 26 0 139 -5 252 -10 113 -5 322 -14 465 -20
143 -6 261 -13 263 -15 2 -2 -29 -104 -68 -227 -40 -122 -84 -261 -99 -308
l-27 -85 -444 0 -444 0 -7 30 c-5 16 -40 205 -79 420 -39 214 -76 404 -81 422
-10 30 -20 36 -152 87 -152 60 -177 65 -201 40z m701 -1406 c14 -13 23 -33 23
-50 0 -36 -40 -78 -75 -78 -14 0 -37 11 -50 25 -70 69 30 170 102 103z m620 0
c14 -13 23 -33 23 -50 0 -36 -40 -78 -75 -78 -14 0 -37 11 -50 25 -70 69 30
170 102 103z"/>
<path d="M24 1319 c-17 -19 -17 -23 -3 -47 14 -26 18 -27 117 -30 116 -3 142
5 142 46 0 46 -15 52 -130 52 -95 0 -109 -2 -126 -21z"/>
<path d="M3080 1321 c-15 -28 -12 -46 8 -64 26 -24 213 -25 236 -1 19 18 20
38 6 65 -10 17 -22 19 -125 19 -103 0 -115 -2 -125 -19z"/>
</g>
</svg>
